<?xml version="1.0" standalone="no"?><!DOCTYPE svg PUBLIC "-//W3C//DTD SVG 1.1//EN" "http://www.w3.org/Graphics/SVG/1.1/DTD/svg11.dtd"><svg t="1516872302784" class="icon" style="" viewBox="0 0 1024 1024" version="1.1" xmlns="http://www.w3.org/2000/svg" p-id="1102" xmlns:xlink="http://www.w3.org/1999/xlink" width="200" height="200"><defs><style type="text/css"></style></defs><path d="M923.414 67l-251.902 0.017 0.016 33.585 228.109 0L656.343 343.895c-138.227-125.697-352.757-122.188-486.227 11.283-137.488 137.487-137.488 361.218 0 498.706s361.218 137.488 498.706 0c133.503-133.487 136.979-348.018 11.266-486.243L923.414 124.33l-0.016 228.158 33.585 0L957 100.602 957 67.017 923.414 67zM645.076 830.138c-124.401 124.402-326.813 124.402-451.215 0-124.401-124.401-124.401-326.813 0-451.215 124.402-124.401 326.813-124.401 451.215 0C769.479 503.324 769.479 705.736 645.076 830.138z" p-id="1103" fill="#ffffff"></path></svg>