<?xml version="1.0" standalone="no"?><!DOCTYPE svg PUBLIC "-//W3C//DTD SVG 1.1//EN" "http://www.w3.org/Graphics/SVG/1.1/DTD/svg11.dtd"><svg t="1516873864609" class="icon" style="" viewBox="0 0 1024 1024" version="1.1" xmlns="http://www.w3.org/2000/svg" p-id="2780" xmlns:xlink="http://www.w3.org/1999/xlink" width="200" height="200"><defs><style type="text/css"></style></defs><path d="M813.452 368.451C813.452 202.235 678.216 67 512 67S210.548 202.235 210.548 368.451c0 161.366 127.554 293.153 287.083 300.723l0 115.567L354.097 784.741l0 28.71 143.534 0L497.631 957l28.71 0L526.341 813.451l143.563 0 0-28.71L526.341 784.741 526.341 669.174C685.885 661.618 813.452 529.831 813.452 368.451zM239.258 368.451C239.258 218.062 361.61 95.709 512 95.709s272.742 122.353 272.742 272.742c0 150.39-122.353 272.742-272.742 272.742S239.258 518.841 239.258 368.451z" p-id="2781" fill="#2c2c2c"></path></svg>